<svg width="975" height="1251" xmlns="http://www.w3.org/2000/svg" xmlns:xlink="http://www.w3.org/1999/xlink" xml:space="preserve" overflow="hidden"><g transform="translate(-1668 -516)"><path d="M2023.13 1224.11C2057.84 1228.36 2082.53 1259.94 2078.28 1294.65L2027.57 1708.81C2023.32 1743.52 1991.74 1768.21 1957.04 1763.96L1957.04 1763.96C1922.33 1759.71 1897.64 1728.13 1901.89 1693.42L1952.6 1279.26C1956.85 1244.55 1988.43 1219.86 2023.13 1224.11Z" stroke="#006600" stroke-width="4.58333" stroke-miterlimit="8" fill="#00B050" fill-rule="evenodd"/><path d="M1898.54 1263.54 1969.61 1150.08 2003.29 1171.18 1932.22 1284.63Z" stroke="#000000" stroke-width="4.58333" stroke-miterlimit="8" fill-rule="evenodd"/><path d="M2027.5 813.5C2069.47 813.5 2103.5 847.526 2103.5 889.5L2103.5 1212.5C2103.5 1254.47 2069.47 1288.5 2027.5 1288.5L2027.5 1288.5C1985.53 1288.5 1951.5 1254.47 1951.5 1212.5L1951.5 889.5C1951.5 847.526 1985.53 813.5 2027.5 813.5Z" stroke="#006600" stroke-width="4.58333" stroke-miterlimit="8" fill="#00B050" fill-rule="evenodd"/><rect x="1951.5" y="1153.5" width="152" height="34.9998" stroke="#000000" stroke-width="4.58333" stroke-miterlimit="8"/><path d="M1866.16 873.815C1884.52 888.45 1887.55 915.203 1872.91 933.569L1744.63 1094.56C1729.99 1112.93 1703.24 1115.95 1684.87 1101.32L1684.87 1101.32C1666.51 1086.68 1663.48 1059.93 1678.12 1041.56L1806.4 880.571C1821.04 862.204 1847.79 859.18 1866.16 873.815Z" fill="#003E00" fill-rule="evenodd"/><path d="M1688.48 1056.77C1707.15 1042.52 1733.83 1046.11 1748.08 1064.78L1852.96 1202.21C1867.21 1220.88 1863.62 1247.56 1844.95 1261.81L1844.95 1261.81C1826.28 1276.05 1799.6 1272.47 1785.35 1253.8L1680.47 1116.37C1666.22 1097.7 1669.81 1071.02 1688.48 1056.77Z" fill="#003E00" fill-rule="evenodd"/><path d="M2166.55 1233.24C2187.17 1210.48 2222.33 1208.74 2245.08 1229.35L2621.7 1570.47C2644.46 1591.09 2646.2 1626.24 2625.59 1649L2625.59 1649C2604.98 1671.76 2569.82 1673.5 2547.06 1652.89L2170.44 1311.77C2147.68 1291.15 2145.94 1255.99 2166.56 1233.23Z" stroke="#006600" stroke-width="4.58333" stroke-miterlimit="8" fill="#00B050" fill-rule="evenodd"/><path d="M2587.86 673.157C2598.58 690.57 2593.15 713.376 2575.74 724.096L2222.85 941.354C2205.44 952.074 2182.63 946.649 2171.91 929.236L2171.91 929.236C2161.19 911.824 2166.62 889.018 2184.03 878.298L2536.92 661.04C2554.33 650.32 2577.14 655.745 2587.86 673.157Z" stroke="#006600" stroke-width="4.58333" stroke-miterlimit="8" fill="#00B050" fill-rule="evenodd"/><path d="M1915.5 631C1915.5 568.868 1966.54 518.5 2029.5 518.5 2092.46 518.5 2143.5 568.868 2143.5 631 2143.5 693.132 2092.46 743.5 2029.5 743.5 1966.54 743.5 1915.5 693.132 1915.5 631Z" stroke="#006600" stroke-width="4.58333" stroke-miterlimit="8" fill="#00B050" fill-rule="evenodd"/></g></svg>