<svg width="1385" height="1082" xmlns="http://www.w3.org/2000/svg" xmlns:xlink="http://www.w3.org/1999/xlink" xml:space="preserve" overflow="hidden"><defs><filter id="fx0" x="-10%" y="-10%" width="120%" height="120%" filterUnits="userSpaceOnUse" primitiveUnits="userSpaceOnUse"><feComponentTransfer color-interpolation-filters="sRGB"><feFuncR type="discrete" tableValues="0 0"/><feFuncG type="discrete" tableValues="0 0"/><feFuncB type="discrete" tableValues="0 0"/><feFuncA type="linear" slope="0.4" intercept="0"/></feComponentTransfer><feGaussianBlur stdDeviation="6.11111 6.11111"/></filter><clipPath id="clip1"><rect x="672" y="1574" width="1385" height="1082"/></clipPath><linearGradient x1="1354.5" y1="2627" x2="1354.5" y2="1583" gradientUnits="userSpaceOnUse" spreadMethod="reflect" id="fill2"><stop offset="0" stop-color="#FFFFFF"/><stop offset="0.35" stop-color="#DD99FF"/><stop offset="0.69" stop-color="#B829FF"/><stop offset="0.98851" stop-color="#7030A0"/><stop offset="1" stop-color="#7030A0"/></linearGradient></defs><g clip-path="url(#clip1)" transform="translate(-672 -1574)"><rect x="720" y="1619" width="1286" height="965" fill="#FFFFFF"/><path d="M966.627 2357.5 919.5 2310.34 1064.25 2165.5 919.5 2020.66 966.627 1973.5 1158.5 2165.5Z" stroke="#FFFFFF" stroke-width="16.8295" stroke-miterlimit="8" fill-rule="evenodd"/><g filter="url(#fx0)" transform="translate(671 1573)"><g><path d="M19.7227 19.7227 19.7227 1063.72 1366.72 1063.72 1366.72 19.7227 19.7227 19.7227ZM1181.51 120.755C1200.03 120.755 1215.19 135.91 1215.19 154.432 1215.19 172.955 1200.03 188.11 1181.51 188.11 1162.99 188.11 1147.84 172.955 1147.84 154.432 1147.84 135.91 1162.99 120.755 1181.51 120.755ZM1063.65 120.755C1082.17 120.755 1097.32 135.91 1097.32 154.432 1097.32 172.955 1082.17 188.11 1063.65 188.11 1045.13 188.11 1029.97 172.955 1029.97 154.432 1029.97 135.91 1045.13 120.755 1063.65 120.755ZM945.785 120.755C964.307 120.755 979.461 135.91 979.461 154.432 979.461 172.955 964.307 188.11 945.785 188.11 927.264 188.11 912.11 172.955 912.11 154.432 912.11 135.91 927.264 120.755 945.785 120.755ZM1265.7 962.691 120.748 962.691 120.748 289.142 1265.7 289.142 1265.7 962.691Z" fill="#FF0000" fill-rule="evenodd"/></g></g><path d="M681 1583 681 2627 2028 2627 2028 1583 681 1583ZM1842.79 1684.03C1861.31 1684.03 1876.46 1699.19 1876.46 1717.71 1876.46 1736.23 1861.31 1751.39 1842.79 1751.39 1824.27 1751.39 1809.11 1736.23 1809.11 1717.71 1809.11 1699.19 1824.27 1684.03 1842.79 1684.03ZM1724.93 1684.03C1743.45 1684.03 1758.6 1699.19 1758.6 1717.71 1758.6 1736.23 1743.45 1751.39 1724.93 1751.39 1706.4 1751.39 1691.25 1736.23 1691.25 1717.71 1691.25 1699.19 1706.4 1684.03 1724.93 1684.03ZM1607.06 1684.03C1625.58 1684.03 1640.74 1699.19 1640.74 1717.71 1640.74 1736.23 1625.58 1751.39 1607.06 1751.39 1588.54 1751.39 1573.39 1736.23 1573.39 1717.71 1573.39 1699.19 1588.54 1684.03 1607.06 1684.03ZM1926.98 2525.97 782.025 2525.97 782.025 1852.42 1926.98 1852.42 1926.98 2525.97Z" fill="url(#fill2)" fill-rule="evenodd"/><path d="M1186.5 2291.5 1456.5 2291.5 1456.5 2358.5 1186.5 2358.5Z" stroke="#FFFFFF" stroke-width="16.8295" stroke-miterlimit="8" fill-rule="evenodd"/><g><g><g><path d="M155.667 77.8139C155.667 99.2962 138.252 116.711 116.769 116.711 95.2872 116.711 77.8723 99.2962 77.8723 77.8139 77.8723 56.3316 95.2872 38.9167 116.769 38.9167 138.252 38.9167 155.667 56.3316 155.667 77.8139Z" fill="#7030A0" transform="matrix(1 0 0 1.00214 1419 1928)"/><path d="M389.274 94.2367C382.231 86.1216 369.944 85.2504 361.828 92.2909L246.965 191.82C242.188 186.387 237.723 181.074 233.413 175.84L185.034 246.547C185.034 246.625 184.99 246.693 184.981 246.766L170.747 317.954 189.68 322.303 202.96 259.136C203.933 260.192 204.955 261.253 205.952 262.313L189.874 411.359C188.566 422.026 196.152 431.733 206.819 433.042 217.485 434.35 227.193 426.764 228.502 416.098 228.525 415.909 228.545 415.721 228.563 415.533L247.174 242.986 247.607 242.743 387.318 121.683C395.436 114.643 396.312 102.356 389.274 94.2367Z" fill="#7030A0" transform="matrix(1 0 0 1.00214 1419 1928)"/><path d="M184.801 226.656C184.647 225.214 184.333 223.794 183.862 222.423L223.858 163.966C214.304 151.804 206.142 140.494 199.356 130.575 227.084 112.863 261.136 99.2667 294.191 86.1469 304.18 82.1804 309.062 70.8668 305.095 60.8778 301.128 50.8889 289.814 46.0071 279.826 49.9739 243.463 64.4168 205.85 79.356 174.069 100.512 144.746 120.034 127.671 135.702 115.13 154.592 103.621 171.939 98.6586 217.997 97.4133 231.695 96.4409 242.398 104.328 251.862 115.031 252.835 115.617 252.888 116.205 252.915 116.794 252.915 117.444 252.916 118.093 252.884 118.74 252.817L167.385 247.953C178.074 246.878 185.87 237.345 184.801 226.656ZM139.04 211.678C140.499 202.148 142.172 193.503 143.826 186.951 148.924 194.063 154.528 201.598 160.672 209.513Z" fill="#7030A0" transform="matrix(1 0 0 1.00214 1419 1928)"/></g></g></g><g><g><g><path d="M858.143 1752.21C858.143 1756.78 854.438 1760.49 849.867 1760.49 845.297 1760.49 841.591 1756.78 841.591 1752.21 841.591 1747.64 845.297 1743.94 849.867 1743.94 854.438 1743.94 858.143 1747.64 858.143 1752.21Z" fill="#FFFFFF"/><path d="M866.146 1779.3 866.146 1771.03C866.119 1769.74 865.517 1768.53 864.505 1767.73 862.127 1765.89 859.406 1764.55 856.503 1763.79 854.311 1763.12 852.032 1762.77 849.74 1762.77 847.45 1762.8 845.175 1763.15 842.977 1763.79 840.106 1764.64 837.4 1765.97 834.974 1767.73 833.962 1768.53 833.36 1769.74 833.333 1771.03L833.333 1779.3Z" fill="#FFFFFF"/><path d="M894.346 1752.21C894.346 1756.78 890.641 1760.49 886.07 1760.49 881.5 1760.49 877.794 1756.78 877.794 1752.21 877.794 1747.64 881.5 1743.94 886.07 1743.94 890.641 1743.94 894.346 1747.64 894.346 1752.21Z" fill="#FFFFFF"/><path d="M902.604 1779.3 902.604 1771.03C902.577 1769.74 901.976 1768.53 900.964 1767.73 898.586 1765.89 895.864 1764.55 892.961 1763.79 890.77 1763.12 888.49 1762.77 886.198 1762.77 883.908 1762.8 881.633 1763.15 879.435 1763.79 876.564 1764.64 873.858 1765.97 871.432 1767.73 870.42 1768.53 869.819 1769.74 869.792 1771.03L869.792 1779.3Z" fill="#FFFFFF"/><path d="M930.805 1752.21C930.805 1756.78 927.099 1760.49 922.529 1760.49 917.958 1760.49 914.253 1756.78 914.253 1752.21 914.253 1747.64 917.958 1743.94 922.529 1743.94 927.099 1743.94 930.805 1747.64 930.805 1752.21Z" fill="#FFFFFF"/><path d="M939.063 1779.3 939.063 1771.03C939.036 1769.74 938.434 1768.53 937.422 1767.73 935.044 1765.89 932.323 1764.55 929.419 1763.79 927.228 1763.12 924.949 1762.77 922.656 1762.77 920.366 1762.8 918.092 1763.15 915.893 1763.79 913.022 1764.64 910.316 1765.97 907.891 1767.73 906.879 1768.53 906.277 1769.74 906.25 1771.03L906.25 1779.3Z" fill="#FFFFFF"/><path d="M824.985 1675.69C824.985 1681.67 820.137 1686.52 814.156 1686.52 808.176 1686.52 803.328 1681.67 803.328 1675.69 803.328 1669.71 808.176 1664.86 814.156 1664.86 820.137 1664.86 824.985 1669.71 824.985 1675.69Z" fill="#FFFFFF"/><path d="M878.013 1671.51C876.941 1670.46 875.22 1670.46 874.149 1671.51L850.596 1695.07C848.714 1694.53 846.692 1695.05 845.292 1696.41 844.909 1696.8 838.11 1707.92 838.11 1707.92L836.068 1699.22C835.798 1698.1 835.238 1697.07 834.445 1696.23 831.086 1693.52 827.219 1691.5 823.07 1690.29 820.138 1689.66 817.154 1689.3 814.156 1689.21 811.132 1689.26 808.128 1689.71 805.224 1690.56 801.038 1691.66 797.155 1693.69 793.867 1696.51 793.068 1697.34 792.507 1698.37 792.245 1699.49 792.245 1699.49 784.388 1732.49 784.388 1733.04 784.388 1736.06 786.837 1738.51 789.857 1738.51 792.277 1738.44 794.369 1736.8 794.998 1734.46L800.685 1710.92 800.685 1786.59 811.458 1786.59 811.458 1737.9 816.927 1737.9 816.927 1786.59 827.682 1786.59 827.682 1710.58 829.688 1719.15C829.827 1719.74 830.22 1720.24 830.763 1720.51 832.859 1722.12 835.413 1723.02 838.055 1723.08 839.775 1723.32 841.479 1722.55 842.43 1721.1L853.55 1702.87C854.26 1701.75 854.527 1700.4 854.297 1699.09L877.995 1675.4C879.068 1674.33 879.076 1672.59 878.013 1671.51Z" fill="#FFFFFF"/><path d="M915.365 1646.23 826.042 1646.23C822.015 1646.23 818.75 1649.49 818.75 1653.52L818.75 1660.08C821.537 1660.84 824.061 1662.36 826.042 1664.46L826.042 1653.52 915.365 1653.52 915.365 1713.68 853.149 1713.68 848.701 1720.97 915.365 1720.97C919.392 1720.97 922.656 1717.7 922.656 1713.68L922.656 1653.52C922.656 1649.49 919.392 1646.23 915.365 1646.23Z" fill="#FFFFFF"/></g></g></g></g></svg>